<?xml version="1.0" encoding="UTF-8"?><svg id="a" xmlns="http://www.w3.org/2000/svg" viewBox="0 0 1500 1500"><defs><style>.b{fill:#fff;}</style></defs><path class="b" d="M1488.13,946.01c-.45-7.71-1.02-15.41-1.71-23.1-.68-7.69-1.47-15.37-2.38-23.04-.92-7.67-1.95-15.32-3.09-22.96-1.16-7.64-2.42-15.26-3.79-22.85-1.38-7.6-2.88-15.18-4.49-22.73-1.6-7.55-3.32-15.08-5.15-22.58-1.84-7.5-3.79-14.97-5.85-22.42-2.06-7.44-4.24-14.85-6.52-22.23-55.21-178-186.43-342.71-352.21-429.91-109.55-57.63-241.88-92.78-366.42-84.34-197.61,9.07-374.96,88.49-508.9,235.41-4.16,4.56-8.25,9.16-12.3,13.82-4.04,4.66-8.02,9.36-11.95,14.12-3.92,4.75-7.79,9.56-11.59,14.41-3.81,4.85-7.55,9.75-11.23,14.69-3.68,4.95-7.3,9.93-10.86,14.97-3.56,5.03-7.06,10.11-10.49,15.23-3.43,5.12-6.8,10.28-10.11,15.49-3.31,5.2-6.54,10.45-9.72,15.74-3.17,5.29-6.28,10.61-9.32,15.97-3.04,5.36-6.02,10.76-8.92,16.2-2.91,5.44-5.75,10.91-8.52,16.42-2.77,5.51-5.47,11.05-8.11,16.62-2.63,5.58-5.2,11.18-7.69,16.82-2.49,5.64-4.92,11.31-7.27,17-2.35,5.7-4.64,11.43-6.85,17.18-2.21,5.76-4.35,11.54-6.42,17.35-2.07,5.81-4.06,11.64-5.99,17.5-1.92,5.86-3.77,11.74-5.55,17.65-1.78,5.9-3.48,11.83-5.11,17.77-1.63,5.95-3.18,11.92-4.66,17.9-1.48,5.99-2.89,11.99-4.22,18.01-1.33,6.02-2.59,12.06-3.77,18.11-1.18,6.05-2.29,12.12-3.32,18.2-1.03,6.08-1.99,12.17-2.87,18.27-.88,6.1-1.68,12.21-2.41,18.34-.73,6.12-1.38,12.25-1.95,18.39-.58,6.14-1.07,12.28-1.49,18.44-.42,6.15-.77,12.31-1.04,18.47-.27,6.16-.46,12.32-.58,18.49-.12,6.16-.15,12.33-.12,18.49.04,6.17.15,12.33.34,18.49.19,6.16.46,12.32.8,18.48,2.57,54.74,12.28,107.65,25.53,160.73,33.41-40.13,62.02-85.62,92.42-128.08,64.82-90.54,129.34-181.83,196.07-270.96,31.58,10.68,62.32,24.32,94.06,34.34,43.33-47.38,84.54-96.92,125.99-145.94l100.65-118.2c30.47-36.25,60.3-73.8,92.12-108.84,3.21,3.69,11.27,10.96,12.18,15.5,10.22,8.99,18.8,21.03,27.56,31.47,15.3,18.47,30.84,36.74,46.6,54.83l137.79,160.81c28.38,33.14,57.47,65.69,85.45,99.15,3.08,3.68,7.28,7.42,8.06,12.34,30.74-10.17,63.1-21.62,92.46-35.18,14.57,12.48,289.63,398.26,289.89,399.19,8.57-16.29,11.81-40.76,15.37-58.92,1.41-7.59,2.71-15.2,3.89-22.84,1.18-7.63,2.25-15.28,3.19-22.94.95-7.66,1.78-15.34,2.5-23.03.72-7.69,1.32-15.38,1.8-23.09.48-7.71.85-15.42,1.09-23.14.26-7.72.39-15.44.41-23.16.02-7.72-.08-15.44-.3-23.16-.22-7.72-.55-15.43-1.01-23.14h0Z"/><path class="b" d="M1181.61,860.45c-6.14-8.26-12.68-19.48-20.38-26.15-1.05-.91-2.21-1.64-3.44-2.31-15.5,8.94-70.94,28.59-89.28,32.59-.51-1.79-1.11-3.21-2.31-4.63l-163.3-188.74c-17.06-20-132.38-159.28-142.44-165.31-.2-.12-.4-.22-.6-.33-60.72,73.34-122.28,145.99-184.67,217.92-40.57,47.47-80.43,96.02-122.8,141.86-31.02-10.7-61.19-23.7-92.23-34.38-37.94,56.82-78.87,111.86-119.2,166.99-65.73,89.19-130.48,179.09-194.27,269.68l258.81.34c40.76.07,81.65-1.3,122.39.03,25.45-59.21,54.27-117.05,79.29-176.41-29.46-15-56.93-34.28-83.66-53.66-19.24,17.35-38.35,34.84-57.32,52.47-15.09-18.36-29.04-37.67-43.15-56.78l-108.01,53.01c53.37-71.88,104.2-145.75,158.13-217.17,19.42,6.47,38.83,16.25,58.48,21.29,27,64.7,53.66,130.19,78.33,195.83l105.68-234.59c-52.9,18.04-106.2,36.01-158.02,56.95,21.88-24.3,42.43-49.83,63.73-74.64l136.98-159.32c29.13-34.02,57.84-68.69,87.68-102.07,5-5.82,10.65-11.61,15.16-17.79,16.51,17.85,31.7,37.16,47.54,55.63l105.26,122.4,96.97,111.9c9.76,11.24,37.91,39.76,42.95,51.27.31,4.23-2.29,9.79-5.12,12.9-.39.45-.84.86-1.28,1.27-22.27-10.97-49.08-17.56-72.63-25.53-22.12-7.5-45.16-17.42-67.9-22.3,3.15,2.43,5.22,5.12,7.1,8.59,9.9,18.44,92.99,197.57,93.52,206.28.03.54-.1,1.27-.17,1.78,2.8-2.1,4.43-4.29,5.99-7.41,7.65-15.22,69.42-155.33,70.03-159.99.07-.6-.01-1.53-.04-2.09,8.2-3.1,61.78-35.67,64.54-40.89,11.8,9.67,45.02,60.28,57.03,76.95,31.16,43.21,63.63,85.85,93.83,129.69,1.52,2.19,2.18,3.76,2.46,6.43.09.69.11,1.39.16,2.08-6.23-7.76-90.84-45.45-105.65-51.17-7.52,11.64-32.54,53.49-41.75,59.58-5.41-9.58-47.2-48.65-56.98-53.86-3.69,5.52-75.22,48.79-84.57,52.32,2.31,2.23,3.75,4.4,5.18,7.27,6.91,13.79,75.2,162.11,75.32,167.07.01.93-.06,1.83-.2,2.75l381.14-.03c-.71-8.15-218.47-306.29-243.57-340.76-16.06-22.39-32.3-44.65-48.71-66.78h0Z"/><path class="b" d="M1004.98,1156.05l-80.2-176.33-32.11-69.84c-4.67-10.19-9.23-24-15.79-32.84-.92-1.25-1.97-2.26-3.12-3.28-5.17,8.94-24.26,23.5-33.99,28.22-.74-3.97-74.06-93.69-78.24-96.38-.26-.16-.51-.31-.77-.47-17.02,21.74-34.4,43.18-52.12,64.35-9.1,11.04-17.88,22.87-27.58,33.35-12.07-10.45-24.31-20.76-36.14-31.48l-122.96,272.82c-18.6,41.22-38.54,81.97-55.78,123.77l288.96-.22,298.9.54c.55-4.26-.74-7.14-2.4-10.92-14.93-34-31.22-67.51-46.66-101.29h0Z"/></svg>