<?xml version="1.0" encoding="UTF-8"?><svg id="a" xmlns="http://www.w3.org/2000/svg" viewBox="0 0 1500 1500"><defs><style>.b{fill:#fff;}</style></defs><polygon class="b" points="456.14 387.75 495.81 455.4 572.41 472.22 520.33 530.86 528 608.9 456.14 577.49 384.28 608.9 391.95 530.86 339.87 472.22 416.47 455.4 456.14 387.75"/><polygon class="b" points="1066.38 387.75 1106.05 455.4 1182.65 472.22 1130.57 530.86 1138.24 608.9 1066.38 577.49 994.53 608.9 1002.2 530.86 950.12 472.22 1026.71 455.4 1066.38 387.75"/><polygon class="b" points="1285.54 469.93 1316.97 523.53 1377.65 536.85 1336.39 583.31 1342.46 645.13 1285.54 620.25 1228.61 645.13 1234.69 583.31 1193.43 536.85 1254.11 523.53 1285.54 469.93"/><polygon class="b" points="214.46 469.93 245.89 523.53 306.57 536.85 265.31 583.31 271.39 645.13 214.46 620.25 157.54 645.13 163.61 583.31 122.35 536.85 183.03 523.53 214.46 469.93"/><polygon class="b" points="772.62 277.66 830.71 376.73 942.88 401.37 866.62 487.23 877.85 601.52 772.62 555.52 667.39 601.52 678.62 487.23 602.36 401.37 714.53 376.73 772.62 277.66"/><path class="b" d="M1299.23,1146.83c-26.85-17.73-54.78-34.1-81.97-51.33l-35.19-22.2c-6.3-3.93-12.76-8.58-19.55-11.55,0,.27,0,.72-.07,1.01-.97,4.11-21.27,34.2-24.92,36.44-6.71-4.17-45.64-12.97-55.32-15.35.58.4,1.09.8,1.63,1.25,5,4.27,26.91,35.63,27.41,41.37-.44-.88-1.05-1.73-1.84-2.34-5.05-3.91-10.82-7.23-16.1-10.87-11.27-7.79-22.49-15.64-33.66-23.57l-43.22-30.4c-8.57-6.03-17.12-12.77-26.21-17.96-5,4.14-30.38,14.65-37.17,16.53-.03-.14-.05-.28-.1-.41-1.17-3.16-92.36-94.23-96.69-96.78-1.92,2.64-9.14,4.81-12.34,5.94-2.26,2.83-27.84,13.38-32.73,15.12-.86-4.3-70.14-79.83-80.83-91.41-2.32,12.48-4.02,25.12-6.09,37.65-1.93,11.68-4.4,23.53-5.33,35.33-23.46-13-44.51-30.8-67.74-44.38l-78.47,82.8c-9.15,9.71-21.72,26.45-32.04,33.99-9.61,7.02-40.69,18.3-53.9,24.04-38.67,16.82-77.02,34.35-115.86,50.78,19.49-28.17,40.07-55.87,60.5-83.38-23.7,10.8-46.14,25.06-69.32,37.01-55.24,27.94-110.28,56.29-165.11,85.05,51.14-50.17,101.82-100.8,152.04-151.88,23.64-23.84,47.9-47.15,71.06-71.44,10,7.32,19.13,16.79,28.44,25.03,20.11,18.04,40.54,35.69,61.3,52.97-12.72-21.05-26.01-42.41-40.09-62.58,11.19-12.18,23.46-23.55,35.05-35.37,14.11-14.39,27.97-29.64,43.07-42.98,9.52,8.82,20.79,17.88,28.76,28.12-18.38,24.95-37.32,50.16-53.87,76.35,23.01-19.06,45.56-43.25,66.93-64.49,50.23-50.65,99.96-101.8,149.17-153.44,5.33,3.51,10.58,10.2,15.17,14.83,16.26,16.36,31.98,33.22,48.12,49.71,54.8,56.39,110.25,112.13,166.36,167.23,14.56,14.42,29.26,28.7,44.09,42.84,8.1,7.68,45.75,40.49,49.4,47.67-.02-.9-.04-1.84-.23-2.73-.77-3.66-170.84-199.53-182.28-207.63.12-.05.23-.1.34-.16,4.57-2.29,46.17-44.13,47.33-47.71,7.17,3.51,113.45,112.03,125.58,124.15,5.89,5.89,41.7,39.77,43.8,44.97.03.3.12.8.09,1.13-.5,4.98-16.46,33.29-20.21,36.27,6.16-2.16,49.94-38.78,52.44-43.74,1.08.48,2.12,1.01,3.02,1.78,8.54,7.16,16.38,16.15,24.39,24.01l61.85,61.8c18.04,18.18,36.22,36.21,54.55,54.1,9.52,9.34,19.82,18.45,28.77,28.28,1.19,1.31,1.71,2.6,1.92,4.35-.97-1.66-2.52-2.77-4.1-3.81h0ZM1199.14,992.95l-45.78-45.58c-6.05-6.02-14.57-16.77-21.67-20.78-.56-.32-.64-.34-1.28-.63-2.65,5.3-12.8,15.6-18.23,18.29-2.07-4.26-47.47-47.16-55.23-54.84-40.54-40.16-80.45-81.01-121.33-120.81-2.77-2.7-5.54-5.86-9.05-7.57-3.39,5.95-57.83,61.89-63.16,64.5-.26-1.53-.77-2.36-1.78-3.48-27.4-30.23-56.81-58.92-85.03-88.41-6.49-6.79-31.69-35.41-37.44-38.88-.5-.3-.53-.29-1.01-.43-24.95,25.9-49.71,51.98-74.29,78.24-24.77,26.04-50.14,51.78-74.1,78.56l-41.84-41.56c-20.47,20.22-40.64,40.74-60.52,61.53-10.39,10.73-20.79,22.99-32.39,32.36-11.54-10.16-21.96-21.52-33.28-31.92l-228.13,229.7c-40.02,40.32-81.08,79.84-120.12,121.11,62.33-.75,124.72-.14,187.06-.17l512-.06,442.42.05,140.55-.09c23.61-.03,47.43-.72,71.02-.04-.62-2.11-1.7-3.18-3.2-4.7l-224.19-224.38h0Z"/></svg>