<?xml version="1.0" encoding="UTF-8"?><svg id="a" xmlns="http://www.w3.org/2000/svg" viewBox="0 0 1500 1500"><defs><style>.b,.c{fill:#fff;}.c{fill-rule:evenodd;}</style></defs><path class="b" d="M1101.21,397.89c-89.88-90.1-214.05-145.84-351.21-145.84s-261.33,55.73-351.21,145.84c-89.88,90.11-145.48,214.6-145.47,352.11,0,137.5,55.59,261.99,145.47,352.1,89.88,90.11,214.05,145.84,351.21,145.84s261.33-55.74,351.21-145.84c89.88-90.11,145.47-214.6,145.47-352.1s-55.59-262-145.47-352.11M810.57,216.74c115.48,13.04,219.84,62.91,301.11,137.63l40.71-25.01,44.35-27.24-27.17,44.46-24.94,40.82c74.52,81.47,124.27,186.1,137.28,301.88l99.74,29.2,107.7,31.53-107.7,31.53-99.74,29.2c-13.01,115.77-62.75,220.4-137.28,301.88l24.94,40.82,27.17,44.45-44.35-27.23-40.71-25.01c-81.27,74.71-185.63,124.59-301.11,137.63l-29.13,99.99-31.45,107.98-31.45-107.98-29.12-99.99c-115.48-13.04-219.84-62.92-301.11-137.63l-40.71,25.01-44.34,27.23,27.16-44.45,24.94-40.82c-74.52-81.48-124.27-186.1-137.28-301.88l-99.74-29.2-107.7-31.53,107.7-31.53,99.74-29.2c13.01-115.77,62.76-220.4,137.28-301.88l-24.94-40.82-27.16-44.46,44.34,27.24,40.71,25.01c81.27-74.71,185.63-124.59,301.11-137.63l29.13-100,31.45-107.98,31.45,107.98,29.13,100Z"/><path class="c" d="M954.5,699.35l-45.41-69.43-9.08-42.11-155.54,215.12,29.52-138.87-183.92,145.69,101.04,73.98,162.35-99.02-136.24,163.9-250.91-3.41,46.55-64.88-62.44-34.15,17.03-68.29-140.04,91.19c51.79,185.15,221.38,320.91,422.6,320.91,173.21,0,322.98-100.6,394.36-246.69l-296.58.78,106.72-244.72ZM1188.87,750c0-242.99-196.49-439.98-438.87-439.98s-438.87,196.99-438.87,439.98c0,36.57,4.45,72.09,12.84,106.07l147.26-117.41,86.59,45.65,338.78-232.94,283.04,288.8c6.05-29.11,9.23-59.27,9.23-90.18Z"/></svg>