<?xml version="1.0" encoding="UTF-8"?><svg id="a" xmlns="http://www.w3.org/2000/svg" viewBox="0 0 1500 1500"><defs><style>.b{fill:#fff;}</style></defs><path class="b" d="M1307.24,175.43c107.15,107.15,160.73,247.62,160.73,388.02s-53.58,280.81-160.67,387.9c-107.21,107.21-247.67,160.79-388.08,160.79-122.96,0-245.97-41.12-346.6-123.37l-85.01,85.01,6.99,7.05c14.33,14.28,14.33,37.66,0,51.93l-322.75,322.75c-14.28,14.27-37.66,14.27-51.93,0l-92.76-92.7c-14.33-14.33-14.33-37.66,0-51.99l322.75-322.75c14.33-14.28,37.66-14.28,51.99,0l6.99,6.99,85.01-85.01c-82.24-100.63-123.37-223.65-123.37-346.66,0-140.34,53.58-280.81,160.67-387.9C638.41,68.28,778.87,14.7,919.22,14.7s280.87,53.58,388.02,160.73h0ZM828.46,224.72c-21.15,5.64-42.94-6.93-48.58-28.14-5.7-21.15,6.93-42.94,28.08-48.58,114.55-30.67,230.87-11.98,326.22,43.06,95.46,54.99,169.84,146.45,200.5,261.07,5.64,21.21-6.93,43-28.08,48.64-21.21,5.64-43-6.93-48.64-28.08-25.03-93.58-85.65-168.13-163.37-213.01-77.66-44.82-172.48-60.04-266.12-34.95h0ZM1251.08,231.71c-91.64-91.64-211.72-137.47-331.86-137.47s-240.16,45.82-331.74,137.41c-91.59,91.59-137.41,211.72-137.41,331.74s45.82,240.21,137.35,331.74c91.7,91.64,211.78,137.47,331.8,137.47s240.15-45.76,331.74-137.35c91.64-91.64,137.47-211.72,137.47-331.8s-45.82-240.21-137.35-331.74h0Z"/><path class="b" d="M1158.63,442.54c-3.82-6.49-12.14-8.69-18.67-4.94l-53.12,30.61,10.16-37.61c2.54-7.14-1.18-14.99-8.32-17.54-7.14-2.54-14.99,1.18-17.54,8.32-.29.81-.5,1.64-.63,2.49l-17.29,64.1-49.69,28.28,10.43-96.08c.83-7.53-4.6-14.32-12.14-15.15-3.39-.37-6.79.52-9.55,2.52l-80.57,59.02v-60.39l46.94-46.94c5.32-5.35,5.32-14,0-19.35-5.34-5.38-14.03-5.42-19.41-.08-.03.03-.05.05-.08.08l-27.45,27.45v-61.63c0-7.58-6.15-13.73-13.73-13.73s-13.73,6.15-13.73,13.73v61.22l-27.45-27.45c-5.76-4.93-14.42-4.26-19.35,1.5-4.4,5.14-4.4,12.72,0,17.86l46.94,46.94v59.3l-78.51-57.92c-4.41-3.17-10.28-3.44-14.96-.69-4.82,2.79-7.47,8.21-6.73,13.73l10.57,97.87-52.16-30.06-17.16-64.1c-1.48-7.43-8.71-12.26-16.15-10.77-7.43,1.48-12.26,8.71-10.77,16.15.11.55.25,1.09.43,1.63l10.02,37.61-52.98-30.88c-6.6-3.79-15.01-1.52-18.8,5.08-3.79,6.6-1.52,15.01,5.08,18.8l52.98,31.02-37.61,10.02c-7.25,2.01-11.54,9.47-9.61,16.75,1.07,6.81,7.47,11.47,14.28,10.4.84-.13,1.67-.35,2.46-.65l64.1-17.16,52.16,30.06-90.04,39.8c-6.94,3.06-10.08,11.16-7.02,18.1,1.38,3.13,3.89,5.64,7.02,7.02l88.81,39.12-50.92,29.37-64.1-18.12c-7.58-1.97-15.32,2.58-17.29,10.16-1.97,7.58,2.58,15.32,10.16,17.29l37.61,10.16-52.98,30.61c-6.54,3.77-8.8,12.11-5.08,18.67,3.75,6.59,12.14,8.88,18.72,5.13.03-.02.05-.03.08-.05l52.98-30.61-10.02,37.61c-1.92,7.31,2.44,14.8,9.75,16.75,7.31,1.92,14.8-2.44,16.75-9.75l17.16-64.79,52.3-30.2-10.71,98.83c-.75,5.52,1.91,10.94,6.73,13.73,4.42,3.36,10.54,3.36,14.96,0l78.37-57.37v57.37l-46.94,46.94c-5.32,5.35-5.32,14,0,19.35,5.35,5.32,14,5.32,19.35,0l27.45-27.45v61.22c0,7.58,6.15,13.73,13.73,13.73s13.73-6.15,13.73-13.73v-61.63l27.45,27.45c5.34,5.38,14.03,5.42,19.41.08.03-.03.05-.05.08-.08,5.32-5.35,5.32-14,0-19.35l-46.81-46.53v-59.57l80.57,59.57c4.38,3.21,10.25,3.54,14.96.82,4.82-2.79,7.47-8.21,6.73-13.73l-10.57-97.87,49.82,28.41,17.29,64.1c1.95,7.31,9.43,11.66,16.75,9.75,7.31-1.95,11.66-9.43,9.75-16.75l-10.16-37.61,53.12,30.61c6.56,3.73,14.9,1.46,18.67-5.08,3.75-6.52,1.54-14.85-4.94-18.67l-53.12-30.47,37.61-9.61c7.58-1.97,12.13-9.71,10.16-17.29-1.97-7.58-9.71-12.13-17.29-10.16l-64.1,17.16-49.82-28.82,90.04-39.67c6.94-3.06,10.08-11.16,7.02-18.1-1.38-3.13-3.89-5.64-7.02-7.02l-91.41-40.35,51.2-29.51,64.1,17.16c9.61,1.37,15.24-2.33,16.88-9.75,1.92-7.31-2.44-14.8-9.75-16.75l-37.61-9.06,53.12-30.61c6.63-3.67,9.03-12.03,5.35-18.66-.13-.24-.27-.47-.41-.7Z"/></svg>