<?xml version="1.0" encoding="UTF-8"?><svg id="a" xmlns="http://www.w3.org/2000/svg" viewBox="0 0 1500 1500"><defs><style>.b{fill:#fff;}</style></defs><path class="b" d="M115.76,598.99C111.03,319.77,332.57,44.67,671.05,45.07c306.96.36,549.31,240.25,551.28,551.97,1.99,315.01-254.79,558.61-561.19,555.49-296.2-3.01-548.94-248.58-545.39-553.54ZM1071.44,895.38l.85.83c41.75-42.04,70.23-91.61,84.24-149.27,1.43-5.9,1.22-12.19,2.35-24.61-22.02,20.59-47.18,29.12-44.36,61.92,1.07,12.48-9.04,25.93-14.06,38.94-2.86-.42-5.73-.85-8.59-1.27-1.64-23.65-2.78-47.36-5.2-70.93-.81-7.92-3.14-20.28-7.93-22.04-6.22-2.29-16.95,2.13-23.38,6.86-24.54,18.06-53.25,32.45-62.51,65.52-.98,3.5-7.18,5.54-16.87,12.52,7.73-37.15,14.14-67.41,20.17-97.74.76-3.83.51-8.44-.94-12.02-4.92-12.16-10.22-24.2-16.11-35.92-2.74-5.46-6.3-13.22-10.99-14.52-20.24-5.61-32.72-19.46-47.72-33-13.7-12.37-21.3-23.56-24.8-40.35-.95-4.57-6.19-9.21-10.64-11.65-1.85-1.01-9.89,3.7-9.87,5.75.19,16.55.02,33.45,3.58,49.43,1.2,5.36,13.56,7.58,19.61,12.67,8.01,6.75,17.21,13.9,21.02,22.94,1.62,3.84-7.93,14.67-14.55,19.16-8.93,6.05-19.75,12.14-30.09,12.76-28.44,1.72-57.06.59-82.34.59,0-40.5.86-78.56-.33-116.54-.69-21.95-4.67-43.79-7.17-65.68l-.74.85c18.96,5.83,29.11-7.79,37.62-19.75,7.18-10.09,10.48-21.74-9.26-27.06-11.14-3.01-21.38-13.13-29.22-22.41-2.49-2.94,5.22-19.86,6.3-19.67,17.9,3.27,35.81,7.31,52.97,13.33,6.68,2.34,10.73,11.69,17.39,14.77,5.98,2.77,13.92,1.33,20.99,1.75-.02-6.16,2.55-14.59-.52-18.07-12.79-14.54-5.48-27.24,6.42-43.16h-37.7l.84.79c-2.52-13.04-8.12-22.27-22.45-12.82-11.6,7.65-21.88,17.29-35.19,28.02-11-5.52-25.06-19.64-39.22-3.53-3.86-23.55-6.92-45.23-11.42-66.59-.73-3.47-7.61-6.78-12.15-7.72-1.7-.35-7.07,6.38-6.92,9.71.54,12.21,2.69,24.35,4.24,36.51-8.39-11.38-11.2-23.9-14.67-36.24-1.59-5.66-3.89-15.29-6.88-15.7-16.93-2.3-32.07-16.51-51.01-6.97-11.71,5.9-24.47,11.94-37.16,12.96-10.81.87-22.18-5.33-33.31-8.4,2.16-7.52,2.05-18.91,6.94-21.77,10.64-6.22,14.88-27.32,35.41-14.43,30.58,19.2,35.83,16.14,47.15-18.01,17.16-.94,34.21-.08,50.49-3.19,22.21-4.25,41.05.37,60.59,11.07,12.06,6.6,27.6,11.47,40.88,10.14,19.18-1.92,37.73-10.17,59.11-16.47-9.99-7.54-17.85-13.47-28.48-21.5,9.83-4.48,16.37-6.26,21.3-10.1,3.64-2.84,5.19-8.36,7.68-12.69-4.83-1.11-10.87-4.63-14.27-2.91-14.09,7.11-33.14,4.73-40.94,25.05-3.04,7.94-16.8,11.76-28.41,19.22q4.45-30.13-17.34-42.15c13.43-4.61,22.98-8.76,32.96-11.09,11.85-2.76,25.02-1.68,35.95-6.26,33.67-14.11,53.29-15.24,75.23,34.06-4.71-1.21-9.84-2.52-14.97-3.84-.73,5.16-3.92,12.53-1.68,15.01,4.44,4.93,13.02,11.21,17.87,9.83,25.06-7.15,49.18-4.66,81.04,9.08-7.26-27.18-6.29-53.61-18.7-63.89-28.67-23.76-61.68-48.1-96.8-57.07-75.88-19.38-154.51-26.37-231.74-29.01,60.83-18.33,122.22,1.09,189.42,9.2-6.84-6.38-8.2-8.36-10.08-9.31-43.06-21.76-91.22-23.86-136.98-25.8-25.58-1.08-54.42-9.96-81.02,3.89-20.55,10.7-42.43,18.92-64.01,27.5-5.98,2.38-13.28,3.75-19.5,2.74-20.77-3.39-40.01-3.24-55.8,13.67-2.25,2.41-7.4,2.02-11.14,3.14-26.2,7.81-54.18,12.12-78.18,24.27-50.65,25.63-86.71,69.38-124.48,110.44-3.69,4.01-8.3,9.36-8.36,14.14-.42,32.69-18.57,60.58-24.62,92.32-7.15,37.55-11.58,71.69.91,107.68,6.58,18.94-.77,32.6-12.8,48.52-19.35,25.6-33.48,55.17-49.53,83.22-1.56,2.72-.7,6.71-1.72,9.87-17.94,55.42.57,106.26,20.64,156.39,81.48,203.44,293.25,338.28,519.66,315.77,143.23-14.24,259.8-78.38,351.09-188.95,4.37-5.3,3.4-15.02,4.91-22.67ZM940.23,461.43c1.23-1.54,2.38-4.36,3.7-4.44,19.96-1.22,16.38-15.52,7.51-21.17-7.97-5.07-22.23-1.9-33.22.2-4.75.91-7.34,81.12-3.4,85.64,2.13,2.45,5.14,6.4,7.3,6.12,6.3-.81,17.61-3.18,17.71-5.35.82-18.23,20.74-35.88,2.55-54.83-1.37-1.43-1.49-4.06-2.13-6.16Z"/><path class="b" d="M1152.65,204.64c-15.75-15.81-30.5-32.79-47.46-47.17-31.58-26.76-64.3-52.19-96.86-77.78-9.67-7.6-22.21-12.3-29.94-21.32-5.22-6.09-8.5-20-4.99-25.71,3.72-6.05,16.71-9.31,25.26-8.65,8.1.63,15.96,7.5,23.46,12.34,155.31,100.18,254.42,240.49,295.61,420.37,71.26,311.22-99.6,637.3-396.42,755.59-47.45,18.91-98.13,30.22-147.97,42.35-21.3,5.19-28.76,3.01-19.8,33,2.56,8.56,4.61,17.27,6.65,25.97,8.01,34.24,8.06,33.72,41.86,39.6,9.51,1.65,19.35,5.91,27.25,11.5,32.04,22.64,63.85,45.68,94.65,69.95,7.66,6.04,16.52,17.84,15.61,25.95-1.8,16.01-18,13.44-29.99,13.45-161.52.08-323.03-.02-484.55-.08-3.36,0-7.3,1.15-9.98-.2-6.51-3.29-15.72-6.59-17.65-12.06-1.91-5.41,1.65-16.31,6.48-19.97,38.37-29.11,77.6-57.09,116.63-85.33,1.75-1.27,4.25-2.52,6.23-2.29,44.8,5.32,48.8-27.54,55.02-58.46,1.1-5.47,2.5-10.92,4.33-16.18,4.83-13.86.42-20.68-14.41-23.03-22.06-3.5-44.76-6.04-65.61-13.45-50.5-17.96-100.15-38.36-149.98-58.16-7.18-2.85-15.76-6.36-19.66-12.24-4.77-7.2-9.39-18.87-6.68-25.64,4.11-10.25,15.02-16.51,27.92-9.79,6.95,3.62,14.13,6.81,21.08,10.43,240.22,125.45,522.44,86.2,719.32-100.09,224.35-212.27,255.4-567.54,71.47-815.42-6.48-8.74-11.07-18.88-16.55-28.37l.31-1.57-.63,2.44Z"/><path class="b" d="M784.83,509.71c-22.5,11.25-13.25,33.85-16.07,50.85-4.67,28.2-5.19,57.43-4.18,86.11.72,20.53,5.71,41.17,11.18,61.11,1.55,5.65,10.91,10.64,17.71,13,9.23,3.21,19.44,3.59,35.23,6.17-24.27,22.3-44.46,42.21-75.94,46.9-15.25,2.27-30.06,7.64-44.97,11.96-29.32,8.48-46.74,25.97-50.39,58.23-2.5,22.13-14.76,29.12-39.03,30.89-17.67,1.29-30.03,6.14-43.86,22.32-14.49,16.96-43.5,24.52-67.54,29.23-15.74,3.09-34.07-5.6-50.89-10.27-4.52-1.26-10.89-6.96-11.07-10.87-1.01-21.87-.67-43.83-.15-65.74.21-8.86,3.5-17.78,2.86-26.49-1.79-24.45.76-43.49,24.66-60.32,20.55-14.48,22.32-44.54,18.35-68.26-3.42-20.4,1.78-33.85,13.27-48.47,9.57-12.18,10.73-24.3-5.47-33.55-3.94-2.25-8.34-7.88-8.4-12.02-.24-16.79-13.83-18.71-24.49-23.67-17.88-8.31-36.11-15.86-54.05-24.04-2.88-1.32-5.52-3.93-7.41-6.56-17.53-24.33-12.02-87.51,8.86-109.45,7.65-8.04,13.81-17.48,21.07-25.92,5.73-6.67,10.93-15.77,18.37-18.67,37.49-14.66,75.36-37.28,113.62-38.35,34.29-.96,73.64,12.01,103.44,41.51-16.88,14.36-19.81,28.89-.57,45.22,7.87,6.68,10.42,19.33,16.74,28.31,2.5,3.55,11.34,7.47,12.77,6.18,17.91-16.07,23.86,1.91,34.43,10.26,16.22,12.82,34.04,23.61,51.19,35.26l.74-.85Z"/><path class="b" d="M718.43,893.82c-28.35,20.08-50.31,36.11-72.99,51.06-2.7,1.78-9.28-2.33-14.05-3.7,1.15-3.97,1.24-8.79,3.62-11.78,18.97-23.83,45.02-33.08,83.42-35.58Z"/><path class="b" d="M695.8,246.12c14.2-15.72,25.38-28.1,36.57-40.48q-20.43,38.9-36.57,40.48Z"/><path class="b" d="M1036,915.59c.32-3.55.11-6.38.89-8.9,1.57-5.07,3.67-9.97,5.55-14.95.6.9,1.83,1.9,1.72,2.7-.96,6.44-2.11,12.85-3.44,19.22-.12.58-1.9.82-4.72,1.93Z"/><path class="b" d="M761.64,155.29c-4.84-.58-9.68-1.16-14.53-1.74.74-1.73,1.66-5,2.21-4.94,4.53.5,9,1.61,13.48,2.54-.39,1.38-.78,2.76-1.16,4.14Z"/><path class="b" d="M691.66,222.45c-2.33-1.49-3.71-2.38-5.1-3.27,2.74-1.18,5.45-2.49,8.27-3.43.59-.2,1.64,1,2.48,1.55-1.96,1.79-3.92,3.57-5.65,5.14Z"/><path class="b" d="M782.83,248.66c-1.36,1.43-2.69,2.83-4.01,4.23-.41-.94-1.42-2.3-1.12-2.74.99-1.44,2.47-2.55,3.76-3.79.49.83.98,1.66,1.37,2.31Z"/><path class="b" d="M697.45,389.5c.54.28,1.07.57,1.61.85-.76.5-1.51,1-2.27,1.5.22-.78.44-1.57.66-2.35Z"/><path class="b" d="M1068.64,839.34c.26.82.81,1.68.68,2.43-.12.73-.94,1.35-1.45,2.01.25-1.48.51-2.96.77-4.44Z"/><polygon class="b" points="849.08 390.27 848.68 392.41 849.92 391.06 849.08 390.27"/><polygon class="b" points="991.34 828.84 992.4 827.09 990.43 827.94 991.34 828.84"/><path class="b" d="M990.43,827.94c-.75,1.32-1.5,2.65-2.24,3.97.11-.66,0-1.62.39-1.91.78-.58,1.83-.8,2.77-1.17l-.91-.89Z"/><polygon class="b" points="1071.44 895.38 1070.93 896.94 1072.29 896.21 1071.44 895.38"/></svg>