<?xml version="1.0" encoding="UTF-8"?><svg id="a" xmlns="http://www.w3.org/2000/svg" viewBox="0 0 1500 1500"><defs><style>.b{fill:#fff;}.c{fill:none;}</style></defs><path class="b" d="M1435.11,460.57c-37.45-88.54-91.06-168.07-159.34-236.34-68.27-68.29-147.8-121.9-236.34-159.34C947.76,26.11,850.37,6.45,750.01,6.45s-197.77,19.66-289.44,58.44c-88.54,37.45-168.05,91.06-236.34,159.34-68.29,68.27-121.9,147.8-159.34,236.34C26.11,552.24,6.45,649.63,6.45,749.99s19.66,197.77,58.44,289.44c37.45,88.54,91.06,168.05,159.34,236.34,68.29,68.29,147.8,121.9,236.34,159.34,91.67,38.78,189.06,58.44,289.44,58.44s197.75-19.66,289.42-58.44c88.54-37.45,168.07-91.06,236.34-159.34,68.29-68.29,121.9-147.8,159.34-236.34,38.78-91.67,58.44-189.06,58.44-289.44s-19.66-197.75-58.44-289.42ZM1301.86,595.66c-1.76,6.63-7.75,11.01-14.32,11.01-1.25,0-2.54-.15-3.81-.49l-426.84-113.4c-7.52,16.06-23.83,27.11-42.57,27.11-10.97,0-21.1-3.79-29.12-10.12v154.68h48.36c12.88,0,23.66,8.07,26.62,18.91h276.41c29.04,0,52.66,23.62,52.66,52.63v429.25c0,29.12-23.62,52.8-52.66,52.8H404.15c-29.04,0-52.66-23.68-52.66-52.8v-429.25c0-29.02,23.62-52.63,52.66-52.63h276.41c2.97-10.84,13.75-18.91,26.62-18.91h48.36v-175.25c-5.66,2.37-11.86,3.71-18.3,3.71-25.08,0-45.65-19.7-47.06-44.44l-440.78-117.05c-7.92-2.1-12.62-10.21-10.53-18.13,2.1-7.9,10.21-12.62,18.13-10.53l440.88,117.07c8.54-12.96,23.19-21.24,39.35-21.24,23,0,42.21,16.58,46.32,38.44,8.37-7.22,19.25-11.44,30.75-11.44,22.69,0,41.68,16.1,46.15,37.45l430.86,114.48c7.92,2.1,12.62,10.21,10.53,18.13Z"/><path class="c" d="M1291.33,577.53l-430.86-114.48c-4.47-21.35-23.47-37.45-46.15-37.45-11.5,0-22.39,4.21-30.75,11.44-4.11-21.86-23.32-38.44-46.32-38.44-16.16,0-30.82,8.28-39.35,21.24l-440.88-117.07c-7.92-2.1-16.03,2.63-18.13,10.53-2.1,7.92,2.61,16.03,10.53,18.13l440.78,117.05c1.42,24.74,21.99,44.44,47.06,44.44,6.44,0,12.64-1.33,18.3-3.71v175.25h-48.36c-12.88,0-23.66,8.07-26.62,18.91h-276.41c-29.04,0-52.66,23.62-52.66,52.63v429.25c0,29.12,23.62,52.8,52.66,52.8h732.44c29.04,0,52.66-23.68,52.66-52.8v-429.25c0-29.02-23.62-52.63-52.66-52.63h-276.41c-2.97-10.84-13.75-18.91-26.62-18.91h-48.36v-154.68c8.03,6.33,18.15,10.12,29.12,10.12,18.75,0,35.05-11.06,42.57-27.11l426.84,113.4c1.27.34,2.56.49,3.81.49,6.57,0,12.56-4.38,14.32-11.01,2.1-7.92-2.61-16.03-10.53-18.13ZM754.27,449.58c-.04.17-.08.34-.15.53,0,.02-.02.04-.02.06v.04s-.02.08-.04.11c-1.95,7.63-8.85,12.94-16.82,12.94-9.66,0-17.5-7.86-17.5-17.52,0-2.27.32-3.54.44-3.96.06-.21.13-.4.17-.59,2.05-7.63,8.98-12.94,16.88-12.94,9.81,0,17.5,7.69,17.5,17.5,0,1.57-.15,2.86-.47,3.83ZM381.14,770.41h98.79c3.16,0,6.16.53,8.92,1.48,8.28,2.88,14.25,9.57,14.25,17.14v91.35h-121.96v-109.97ZM381.14,910.03h121.96v91.35c0,10.19-10.61,18.79-23.17,18.79h-98.79v-110.14ZM1159.59,1165.26c0,12.77-10.31,23.15-23,23.15H404.15c-12.69,0-23-10.38-23-23.15v-22.35h778.44v22.35ZM1159.59,1020.17h-98.81c-12.54,0-23.15-8.6-23.15-18.79v-91.35h121.96v110.14ZM1159.59,880.38h-121.96v-91.35c0-10.1,10.61-18.62,23.15-18.62h98.81v109.97ZM1136.59,713.03c12.69,0,23,10.32,23,22.98v4.74h-98.81c-29.1,0-52.8,21.65-52.8,48.27v212.36c0,26.71,23.7,48.44,52.8,48.44h98.81v63.44H381.14v-63.44h98.79c29.12,0,52.83-21.73,52.83-48.44v-212.36c0-9.55-3.05-18.49-8.35-26.01-5.25-7.5-12.75-13.6-21.6-17.5-1.53-.68-3.11-1.29-4.72-1.84-1.63-.53-3.28-1.02-4.96-1.42-4.21-.97-8.64-1.5-13.2-1.5h-98.79v-4.74c0-12.67,10.32-22.98,23-22.98h732.44ZM831.75,473.32c-.02.17-.06.36-.06.55-.55,9.19-8.15,16.37-17.37,16.37s-17.5-7.86-17.5-17.5c0-2.77.55-5.19,1.63-7.2.13-.23.25-.49.36-.72,2.73-5.82,8.83-9.57,15.5-9.57,9.57,0,17.39,7.71,17.5,17.26-.02.28-.04.53-.06.8Z"/><path class="b" d="M754.73,445.75c0,1.57-.15,2.86-.47,3.83-.04.17-.08.34-.15.53,0,.02-.02.04-.02.06v.04s-.02.08-.04.11c-1.95,7.63-8.85,12.94-16.82,12.94-9.66,0-17.5-7.86-17.5-17.52,0-2.27.32-3.54.44-3.96.06-.21.13-.4.17-.59,2.05-7.63,8.98-12.94,16.88-12.94,9.81,0,17.5,7.69,17.5,17.5Z"/><path class="b" d="M831.81,472.52c-.02.28-.04.53-.06.8-.02.17-.06.36-.06.55-.55,9.19-8.15,16.37-17.37,16.37s-17.5-7.86-17.5-17.5c0-2.77.55-5.19,1.63-7.2.13-.23.25-.49.36-.72,2.73-5.82,8.83-9.57,15.5-9.57,9.57,0,17.39,7.71,17.5,17.26Z"/><path class="b" d="M1060.78,740.75h98.81v-4.74c0-12.67-10.31-22.98-23-22.98H404.15c-12.69,0-23,10.32-23,22.98v4.74h98.79c4.55,0,8.98.53,13.2,1.5,1.67.4,3.33.89,4.96,1.42,1.61.55,3.2,1.16,4.72,1.84,8.85,3.9,16.35,10,21.6,17.5,5.3,7.52,8.35,16.46,8.35,26.01v212.36c0,26.71-23.7,48.44-52.83,48.44h-98.79v63.44h778.44v-63.44h-98.81c-29.1,0-52.8-21.73-52.8-48.44v-212.36c0-26.62,23.7-48.27,52.8-48.27ZM747.38,971.01c0,4.38-.59,8.62-1.67,12.69-5.87,21.92-26.58,38.17-51.15,38.17h-75.79c-29.04,0-52.66-22.81-52.66-50.86v-179.55c0-27.96,23.62-50.71,52.66-50.71h75.79c24.57,0,45.28,16.18,51.15,38.04,1.08,4.05,1.67,8.28,1.67,12.67v179.55ZM974.61,971.01c0,28.04-23.62,50.86-52.66,50.86h-75.79c-29.12,0-52.83-22.81-52.83-50.86v-179.55c0-27.96,23.7-50.71,52.83-50.71h75.79c29.04,0,52.66,22.75,52.66,50.71v179.55Z"/><path class="c" d="M745.71,778.8c-5.87-21.86-26.58-38.04-51.15-38.04h-75.79c-29.04,0-52.66,22.75-52.66,50.71v179.55c0,28.04,23.62,50.86,52.66,50.86h75.79c24.57,0,45.28-16.25,51.15-38.17,1.08-4.07,1.67-8.3,1.67-12.69v-179.55c0-4.38-.59-8.62-1.67-12.67ZM717.73,971.01c0,11.69-10.4,21.2-23.17,21.2h-75.79c-12.69,0-23-9.51-23-21.2v-74.87h121.96v74.87ZM717.73,866.48h-121.96v-75.02c0-11.63,10.32-21.05,23-21.05h75.79c12.77,0,23.17,9.43,23.17,21.05v75.02Z"/><path class="c" d="M921.96,740.75h-75.79c-29.12,0-52.83,22.75-52.83,50.71v179.55c0,28.04,23.7,50.86,52.83,50.86h75.79c29.04,0,52.66-22.81,52.66-50.86v-179.55c0-27.96-23.62-50.71-52.66-50.71ZM944.96,971.01c0,11.69-10.32,21.2-23,21.2h-75.79c-12.77,0-23.17-9.51-23.17-21.2v-74.87h121.96v74.87ZM944.96,866.48h-121.96v-75.02c0-11.63,10.4-21.05,23.17-21.05h75.79c12.69,0,23,9.43,23,21.05v75.02Z"/><path class="b" d="M1159.59,1142.92v22.35c0,12.77-10.31,23.15-23,23.15H404.15c-12.69,0-23-10.38-23-23.15v-22.35h778.44Z"/><path class="b" d="M1159.59,770.41v109.97h-121.96v-91.35c0-10.1,10.61-18.62,23.15-18.62h98.81Z"/><path class="b" d="M1159.59,910.03v110.14h-98.81c-12.54,0-23.15-8.6-23.15-18.79v-91.35h121.96Z"/><path class="b" d="M944.96,896.14v74.87c0,11.69-10.32,21.2-23,21.2h-75.79c-12.77,0-23.17-9.51-23.17-21.2v-74.87h121.96Z"/><path class="b" d="M944.96,791.46v75.02h-121.96v-75.02c0-11.63,10.4-21.05,23.17-21.05h75.79c12.69,0,23,9.43,23,21.05Z"/><path class="b" d="M717.73,791.46v75.02h-121.96v-75.02c0-11.63,10.32-21.05,23-21.05h75.79c12.77,0,23.17,9.43,23.17,21.05Z"/><path class="b" d="M717.73,896.14v74.87c0,11.69-10.4,21.2-23.17,21.2h-75.79c-12.69,0-23-9.51-23-21.2v-74.87h121.96Z"/><path class="b" d="M503.1,910.03v91.35c0,10.19-10.61,18.79-23.17,18.79h-98.79v-110.14h121.96Z"/><path class="b" d="M503.1,789.03v91.35h-121.96v-109.97h98.79c3.16,0,6.16.53,8.92,1.48,8.28,2.88,14.25,9.57,14.25,17.14Z"/></svg>