<?xml version="1.0" encoding="UTF-8"?><svg id="a" xmlns="http://www.w3.org/2000/svg" viewBox="0 0 1500 1500"><defs><style>.c{fill:#fff;}</style></defs><g id="b"><path class="c" d="M1352.63,306.14c0-11.59-11.59-20.86-23.18-20.86h-32.45l2.32-13.91c2.32-18.54-4.64-39.4-16.22-53.31-11.59-13.91-32.45-23.18-50.99-23.18-34.77,0-64.9,25.5-69.53,60.26l-4.64,30.13h-69.53l2.32-13.91c2.32-18.54-4.64-39.4-16.22-53.31-11.59-13.91-32.45-23.18-50.99-23.18-34.77,0-64.9,25.5-69.53,60.26l-4.64,30.13h-69.53l2.32-13.91c2.32-18.54-4.64-39.4-16.22-53.31-11.59-13.91-32.45-23.18-50.99-23.18-34.77,0-64.9,25.5-69.53,60.26l-4.64,30.13h-69.53l2.32-13.91c2.32-18.54-4.64-39.4-16.22-53.31-11.59-13.91-32.45-23.18-50.99-23.18-34.77,0-64.9,25.5-69.53,60.26l-4.64,30.13h-69.53l2.32-13.91c2.32-18.54-4.64-39.4-16.22-53.31-11.59-13.91-32.45-23.18-50.99-23.18-34.77,0-64.9,25.5-69.53,60.26l-4.64,30.13h-60.26c-11.59,0-20.86,6.95-23.18,18.54L54.66,1184.59c-2.32,6.95,0,13.91,4.64,18.54,4.64,6.95,11.59,9.27,18.54,9.27h32.45l-9.27,67.22c0,6.95,0,13.91,4.64,18.54,4.64,4.64,11.59,6.95,18.54,6.95h1112.54c4.64,0,6.95,0,9.27-2.32l83.44-41.72,83.44,41.72c2.32,2.32,4.64,2.32,9.27,2.32s9.27-2.32,13.91-4.64c6.95-4.64,11.59-13.91,9.27-20.86l-92.71-973.47ZM1208.92,259.79c2.32-11.59,11.59-20.86,23.18-20.86,6.95,0,11.59,2.32,16.22,6.95,4.64,4.64,6.95,11.59,4.64,18.54l-2.32,20.86h-46.36l4.64-25.5ZM1000.32,259.79c2.32-11.59,11.59-20.86,23.18-20.86,6.95,0,11.59,2.32,16.22,6.95,4.64,4.64,6.95,11.59,4.64,18.54l-2.32,20.86h-46.36l4.64-25.5ZM791.72,259.79c2.32-11.59,11.59-20.86,23.18-20.86,6.95,0,11.59,2.32,16.22,6.95,4.64,4.64,6.95,11.59,4.64,18.54l-2.32,20.86h-46.36l4.64-25.5ZM583.12,259.79c2.32-11.59,11.59-20.86,23.18-20.86,6.95,0,11.59,2.32,16.22,6.95,4.64,4.64,6.95,11.59,4.64,18.54l-2.32,20.86h-46.36l4.64-25.5ZM374.52,259.79c2.32-11.59,11.59-20.86,23.18-20.86,6.95,0,11.59,2.32,16.22,6.95,4.64,4.64,6.95,11.59,4.64,18.54l-2.32,20.86h-46.36l4.64-25.5ZM105.65,1166.04l176.15-834.41h37.08l-2.32,13.91c-2.32,18.54,4.64,39.4,16.22,53.31,11.59,13.91,32.45,23.18,50.99,23.18,13.91,0,23.18-9.27,23.18-23.18s-9.27-23.18-23.18-23.18c-6.95,0-11.59-2.32-16.22-6.95s-6.95-11.59-4.64-18.54l2.32-20.86h162.25l-2.32,13.91c-2.32,18.54,4.64,39.4,16.22,53.31,11.59,13.91,32.45,23.18,50.99,23.18,13.91,0,23.18-9.27,23.18-23.18s-9.27-23.18-23.18-23.18c-6.95,0-11.59-2.32-16.22-6.95-4.64-4.64-6.95-11.59-4.64-18.54l2.32-20.86h162.25l-2.32,13.91c-2.32,18.54,4.64,39.4,16.22,53.31,11.59,13.91,32.45,23.18,50.99,23.18,13.91,0,23.18-9.27,23.18-23.18s-9.27-23.18-23.18-23.18c-6.95,0-11.59-2.32-16.22-6.95-4.64-4.64-6.95-11.59-4.64-18.54l2.32-20.86h162.25l-2.32,13.91c-2.32,18.54,4.64,39.4,16.22,53.31,11.59,13.91,32.45,23.18,50.99,23.18,13.91,0,23.18-9.27,23.18-23.18s-9.27-23.18-23.18-23.18c-6.95,0-11.59-2.32-16.22-6.95-4.64-4.64-6.95-11.59-4.64-18.54l2.32-20.86h162.25l-2.32,13.91c-2.32,18.54,4.64,39.4,16.22,53.31,11.59,13.91,32.45,23.18,50.99,23.18,13.91,0,23.18-9.27,23.18-23.18s-9.27-23.18-23.18-23.18c-6.95,0-11.59-2.32-16.22-6.95s-6.95-11.59-4.64-18.54l2.32-20.86h101.98l-176.15,834.41H105.65v11.59ZM156.65,1212.4h987.38c11.59,0,20.86-6.95,23.18-18.54l99.67-477.47-50.99,542.36H152.01l4.64-46.36ZM1338.72,1214.72c-6.95-2.32-13.91-2.32-20.86,0l-55.63,27.81,67.22-690.7,64.9,690.7-55.63-27.81Z"/><path class="c" d="M1204.29,526.33c-4.64-4.64-11.59-9.27-18.54-9.27H309.62c-11.59,0-20.86,6.95-23.18,18.54l-115.89,556.27c-2.32,6.95,0,13.91,4.64,18.54,2.32,6.95,9.27,9.27,16.22,9.27h876.13c11.59,0,20.86-6.95,23.18-18.54l118.21-556.27c0-6.95,0-13.91-4.64-18.54ZM1137.07,656.13h-108.94l18.54-92.71h111.25l-20.86,92.71ZM1109.26,795.2h-111.25l18.54-92.71h111.25l-18.54,92.71ZM1079.13,934.26h-111.25l18.54-92.71h111.25l-18.54,92.71ZM754.64,1073.33l18.54-92.71h139.07l-18.54,92.71h-139.07ZM569.21,1073.33l18.54-92.71h139.07l-18.54,92.71h-139.07ZM383.79,1073.33l18.54-92.71h139.07l-18.54,92.71h-139.07ZM270.22,841.55h115.89l-18.54,92.71h-115.89l18.54-92.71ZM298.03,702.49h115.89l-18.54,92.71h-115.89l18.54-92.71ZM629.47,563.42l-18.54,92.71h-139.07l18.54-92.71h139.07ZM814.9,563.42l-18.54,92.71h-139.07l18.54-92.71h139.07ZM1000.32,563.42l-18.54,92.71h-139.07l18.54-92.71h139.07ZM627.16,795.2l18.54-92.71h139.07l-18.54,92.71h-139.07ZM754.64,841.55l-18.54,92.71h-139.07l18.54-92.71h139.07ZM831.12,702.49h139.07l-18.54,92.71h-139.07l18.54-92.71ZM599.34,702.49l-18.54,92.71h-139.07l18.54-92.71h139.07ZM432.46,841.55h139.07l-18.54,92.71h-139.07l18.54-92.71ZM782.45,934.26l18.54-92.71h139.07l-18.54,92.71h-139.07ZM328.16,563.42h115.89l-18.54,92.71h-115.89l18.54-92.71ZM240.09,980.62h115.89l-18.54,92.71h-115.89l18.54-92.71ZM1049,1073.33h-111.25l18.54-92.71h111.25l-18.54,92.71Z"/><path class="c" d="M379.15,493.88h185.42c13.91,0,23.18-9.27,23.18-23.18s-9.27-23.18-23.18-23.18h-185.42c-13.91,0-23.18,9.27-23.18,23.18s9.27,23.18,23.18,23.18Z"/><path class="c" d="M1051.31,493.88h92.71c13.91,0,23.18-9.27,23.18-23.18s-9.27-23.18-23.18-23.18h-92.71c-13.91,0-23.18,9.27-23.18,23.18s9.27,23.18,23.18,23.18Z"/></g></svg>