<?xml version="1.0" encoding="UTF-8"?><svg id="a" xmlns="http://www.w3.org/2000/svg" viewBox="0 0 1500 1500"><defs><style>.b{fill:none;stroke:#fff;stroke-linecap:round;stroke-linejoin:round;stroke-width:44px;}</style></defs><circle class="b" cx="750" cy="750" r="664.84"/><path class="b" d="M697.43,272.39c46.56-13.02,52.57-47.06,4.51-75.1-23.92-13.99-35.94-57.03-29.1-107.71"/><path class="b" d="M130.92,507.19c44.91,38.72,82.93,76.74,85.07,95.96,5.34,48.06,16.02,117.48,85.44,106.8,69.42-10.68,97.51-56.55,118.18,1.12,17.36,48.4,121.22,97.59,117.91,29.81"/><path class="b" d="M889.96,783.16c-7.21,10.57-13.46,22-14.69,34.07-2.56,24.78,17.09,46.62,41.44,56.87,34.82,14.69,94.52,4.22,112.84,39.89,9.51,18.53-2.88,45.07,1.92,65.52,6.25,26.49,24.4,50.36,50.36,63.65,19.38,9.93,44.11,14.1,65.68,5.61,25.9-10.2,40.85-35.83,46.41-60.45,22.16-98.36-36.26-258.35,150.32-226.63,23.5,4.01,46.89,8.17,70.17,12.23"/><path class="b" d="M861.56,1254.05c14.4,46.53,8.07,100.73,25.31,146.7"/><path class="b" d="M422.12,1328.49c3.95-9.99,7.1-20.24,9.24-30.6,19.12-92.44-64.29-219.1,3.95-299.9,23.07-27.31,62.03-34.86,97.35-26.66"/></svg>